<svg width="24" height="24" viewBox="0 0 24 24" fill="none" xmlns="http://www.w3.org/2000/svg">
<path fill-rule="evenodd" clip-rule="evenodd" d="M17.7071 17.7069C18.0976 17.3163 18.0976 16.6832 17.7071 16.2926L6.70711 5.29265C6.31658 4.90212 5.68342 4.90212 5.29289 5.29265C4.90237 5.68317 4.90237 6.31634 5.29289 6.70686L16.2929 17.7069C16.6834 18.0974 17.3166 18.0974 17.7071 17.7069Z" fill="white"/>
<path d="M17.2444 18.7102C17.525 18.6283 17.9065 18.4847 18.1956 18.1956C18.4847 17.9064 18.6283 17.525 18.7102 17.2443C18.8008 16.934 18.8605 16.583 18.9018 16.2299C18.9845 15.5212 19.0051 14.6893 18.999 13.9158C18.9929 13.1363 18.9594 12.3878 18.9276 11.8361C18.9117 11.5597 18.8962 11.3312 18.8845 11.1712C18.8788 11.092 18.8685 10.9624 18.865 10.9178L18.8649 10.9166C18.8185 10.3662 18.3347 9.95713 17.7844 10.0035C17.2341 10.0499 16.8256 10.5336 16.872 11.0839C16.8751 11.1235 16.8843 11.2405 16.8898 11.3162C16.9008 11.4677 16.9157 11.686 16.9309 11.9511C16.9615 12.4824 16.9933 13.1958 16.9991 13.9315C17.0049 14.6732 16.9839 15.41 16.9153 15.998C16.8808 16.2933 16.8116 16.603 16.7645 16.7644C16.6031 16.8115 16.2933 16.8808 15.998 16.9152C15.41 16.9839 14.6732 17.0049 13.9315 16.9991C13.1957 16.9933 12.4824 16.9615 11.951 16.931C11.686 16.9157 11.4676 16.9008 11.3162 16.8898C11.2405 16.8843 11.1239 16.8751 11.0844 16.872C10.5341 16.8257 10.0499 17.2342 10.0035 17.7845C9.95714 18.3348 10.3657 18.8185 10.916 18.8649L10.9183 18.8651C10.9638 18.8687 11.0926 18.8789 11.1713 18.8846C11.3312 18.8962 11.5597 18.9117 11.8361 18.9277C12.3878 18.9594 13.1363 18.9929 13.9158 18.999C14.6893 19.0051 15.5212 18.9845 16.2299 18.9017C16.583 18.8605 16.934 18.8007 17.2444 18.7102Z" fill="white"/>
</svg>
