<svg width="24" height="24" viewBox="0 0 24 24" fill="none" xmlns="http://www.w3.org/2000/svg">
<g clip-path="url(#clip0_6454_2)">
<path d="M0.12329 22.8652C0.21329 23.3288 0.638915 23.7769 1.09876 23.8791C1.48805 23.9587 1.88455 23.9976 2.28188 23.9954C2.67937 23.9976 3.07602 23.9587 3.46548 23.8791C3.92767 23.7769 4.35095 23.3288 4.44048 22.8652C4.4972 22.584 4.56704 21.7955 4.56095 21.2748C4.56704 20.754 4.4972 19.9665 4.44048 19.6838C4.35095 19.2207 3.92767 18.7726 3.46548 18.6704C3.07608 18.5904 2.6794 18.5513 2.28188 18.5537C1.88453 18.5515 1.48803 18.5906 1.09876 18.6704C0.636572 18.7726 0.21329 19.2188 0.12329 19.6838C0.0670404 19.9651 -0.00280335 20.754 0.00282165 21.2748C-0.00280335 21.7969 0.0670404 22.583 0.12329 22.8652ZM6.55876 22.8699C6.64876 23.3335 7.07438 23.7812 7.53423 23.8838C8.31552 24.0388 9.11965 24.0388 9.90095 23.8838C10.3631 23.7812 10.7864 23.3335 10.8764 22.8699C10.9327 22.5887 11.0025 20.5669 10.9969 20.0462C11.0025 19.5254 10.9327 17.5046 10.8764 17.2224C10.7864 16.7588 10.3631 16.3112 9.90095 16.2085C9.11965 16.0535 8.31552 16.0535 7.53423 16.2085C7.07204 16.3112 6.64876 16.7593 6.55876 17.2224C6.50251 17.5037 6.43267 19.5254 6.43829 20.0462C6.43267 20.5669 6.50251 22.5877 6.55876 22.8699ZM13.0589 22.8699C13.1489 23.3335 13.5745 23.7812 14.0344 23.8838C14.8157 24.0388 15.6198 24.0388 16.4011 23.8838C16.8633 23.7812 17.2866 23.3335 17.3766 22.8699C17.4328 22.5887 17.5027 18.5926 17.497 18.0718C17.5027 17.5505 17.4328 13.5558 17.3766 13.2732C17.2866 12.8101 16.8633 12.3619 16.4011 12.2598C15.6199 12.1041 14.8156 12.1041 14.0344 12.2598C13.5722 12.3619 13.1489 12.8101 13.0589 13.2732C13.0027 13.5544 12.9328 17.5505 12.9389 18.0718C12.9328 18.5926 13.0027 22.5877 13.0589 22.8699ZM19.5595 22.8699C19.6491 23.3335 20.0724 23.7812 20.5345 23.8838C21.3158 24.0388 22.12 24.0388 22.9013 23.8838C23.3634 23.7812 23.7867 23.3335 23.8767 22.8699C23.933 22.5887 24.0028 16.6182 23.9972 16.0969C24.0028 15.5762 23.933 9.60663 23.8767 9.32444C23.7867 8.86085 23.3634 8.41272 22.9013 8.31053C22.12 8.15553 21.3158 8.15553 20.5345 8.31053C20.0724 8.41272 19.6491 8.86085 19.5595 9.32444C19.5028 9.60569 19.433 15.5762 19.4391 16.0969C19.433 16.6182 19.5028 22.5877 19.5595 22.8699ZM21.0938 0.0544418L17.0527 1.52866C16.3233 1.79491 16.2689 2.806 16.9659 3.14913L17.7089 3.51569C15.8203 5.28757 13.6631 6.91085 11.1516 8.4521C8.19845 10.2507 5.37048 11.5632 2.50548 12.4641C2.36454 12.5084 2.23372 12.5801 2.12047 12.675C2.00723 12.7699 1.91378 12.8861 1.84546 13.0171C1.70749 13.2817 1.68026 13.5902 1.76978 13.8748C1.85929 14.1595 2.0582 14.3969 2.32276 14.5348C2.58732 14.6728 2.89585 14.7 3.18048 14.6105C6.22126 13.6543 9.21189 12.2668 12.3253 10.3716C15.0839 8.67897 17.4413 6.88694 19.5028 4.91538L20.1202 5.69304C20.603 6.30241 21.5799 6.03382 21.6853 5.26413L22.2689 1.00319C22.2895 0.852679 22.2709 0.699402 22.2148 0.558204C22.1588 0.417005 22.0672 0.292672 21.949 0.197244C21.8308 0.101817 21.69 0.0385289 21.5402 0.0135106C21.3903 -0.0115076 21.2366 0.00259123 21.0938 0.0544418Z" fill="#A0A0A0"/>
</g>
<defs>
<clipPath id="clip0_6454_2">
<rect width="24" height="24" fill="white"/>
</clipPath>
</defs>
</svg>
