<svg width="24" height="24" viewBox="0 0 24 24" fill="none" xmlns="http://www.w3.org/2000/svg">
<path d="M16.2 3.25C16.5713 3.25 16.9274 3.3817 17.1899 3.61612C17.4525 3.85054 17.6 4.16848 17.6 4.5V19.5C17.6 19.8315 17.4525 20.1495 17.1899 20.3839C16.9274 20.6183 16.5713 20.75 16.2 20.75H7.8C7.4287 20.75 7.0726 20.6183 6.81005 20.3839C6.5475 20.1495 6.4 19.8315 6.4 19.5V4.5C6.4 4.16848 6.5475 3.85054 6.81005 3.61612C7.0726 3.3817 7.4287 3.25 7.8 3.25H16.2ZM7.8 2C7.05739 2 6.3452 2.26339 5.8201 2.73223C5.295 3.20107 5 3.83696 5 4.5V19.5C5 20.163 5.295 20.7989 5.8201 21.2678C6.3452 21.7366 7.05739 22 7.8 22H16.2C16.9426 22 17.6548 21.7366 18.1799 21.2678C18.705 20.7989 19 20.163 19 19.5V4.5C19 3.83696 18.705 3.20107 18.1799 2.73223C17.6548 2.26339 16.9426 2 16.2 2H7.8Z" fill="#A0A0A0"/>
<path d="M12.0002 19.5C12.3715 19.5 12.7276 19.3683 12.9902 19.1339C13.2527 18.8995 13.4002 18.5815 13.4002 18.25C13.4002 17.9185 13.2527 17.6005 12.9902 17.3661C12.7276 17.1317 12.3715 17 12.0002 17C11.6289 17 11.2728 17.1317 11.0103 17.3661C10.7477 17.6005 10.6002 17.9185 10.6002 18.25C10.6002 18.5815 10.7477 18.8995 11.0103 19.1339C11.2728 19.3683 11.6289 19.5 12.0002 19.5Z" fill="#A0A0A0"/>
</svg>
