<svg width="22" height="22" viewBox="0 0 22 22" fill="none" xmlns="http://www.w3.org/2000/svg">
<g clip-path="url(#clip0_6433_4614)">
<path fill-rule="evenodd" clip-rule="evenodd" d="M21.7077 15.6665H21.9612V16.9297H2.98623C2.16982 16.9297 1.49521 17.6 1.49521 18.4208C1.49521 19.2415 2.16553 19.9118 2.98623 19.9118H21.9612V21.175H2.78857C1.27607 21.175 0.0385742 19.9375 0.0385742 18.425C0.0385742 16.9125 1.27607 15.675 2.78857 15.675H21.7077V15.6665ZM2.98623 19.2586H21.9612V17.5786H2.98623C1.88193 17.6 1.88193 19.2372 2.98623 19.2586ZM21.7077 3.28716H20.4229V12.6372C20.4229 13.1012 20.0448 13.4793 19.5808 13.4793H13.1827C12.2761 13.4793 11.5112 14.1368 11.3522 15.0133H21.7077C21.7765 15.0133 21.8409 14.9833 21.8839 14.9403C21.9312 14.8973 21.9569 14.8329 21.9569 14.7641V3.54067C21.9612 3.40317 21.8452 3.29146 21.7077 3.28716ZM19.5851 12.8348C19.6925 12.8348 19.7784 12.7489 19.7784 12.6415V1.02271C19.7784 0.915283 19.6925 0.829346 19.5851 0.829346H13.1827C12.1601 0.829346 11.3222 1.66724 11.3222 2.68989V13.6598C11.7905 13.1485 12.4437 12.8305 13.1827 12.8305H19.5851V12.8348ZM2.41475 12.8348H8.81279C9.54756 12.8348 10.2093 13.1528 10.6733 13.6641V2.68989C10.6733 2.17856 10.4628 1.7145 10.1276 1.37505C9.79248 1.03989 9.32412 0.829346 8.81279 0.829346H2.41475C2.36318 0.829346 2.31162 0.85083 2.27725 0.885205C2.24287 0.91958 2.22139 0.966846 2.22139 1.02271V12.6415C2.22139 12.7489 2.31162 12.8305 2.41475 12.8348ZM0.29209 15.0176H10.6476C10.4886 14.1411 9.72373 13.4836 8.81709 13.4836H2.41475C2.16982 13.4836 1.95068 13.3805 1.796 13.2129C1.6585 13.0625 1.57256 12.8606 1.57256 12.6415V3.28716H0.29209C0.15459 3.28716 0.0385742 3.40317 0.0385742 3.54067V14.7641C0.0385742 14.9016 0.150293 15.0176 0.29209 15.0176Z" fill="#4ECDC4"/>
</g>
<defs>
<clipPath id="clip0_6433_4614">
<rect width="22" height="22" fill="white"/>
</clipPath>
</defs>
</svg>
