<svg width="32" height="32" viewBox="0 0 32 32" fill="none" xmlns="http://www.w3.org/2000/svg">
<g clip-path="url(#clip0_6433_3714)">
<path d="M0 31.9959L7.66337 9.23828L22.799 24.3173L0 31.9959Z" fill="#FFEA84"/>
<path d="M0 31.9961L22.799 24.3175L15.2246 16.7715L0 31.9961Z" fill="#FFDC40"/>
<path d="M21.3799 24.5559C20.5561 24.5559 19.6188 24.3572 18.5984 23.9579C16.5553 23.1584 14.3378 21.6257 12.3543 19.6422C10.3708 17.6586 8.83818 15.4411 8.03868 13.398C7.14087 11.1038 7.25718 9.22961 8.36612 8.12073C9.47499 7.01179 11.3492 6.89555 13.6434 7.7933C15.6866 8.59273 17.9041 10.1254 19.8876 12.109C21.8712 14.0925 23.4037 16.31 24.2032 18.3531C25.1011 20.6474 24.9847 22.5215 23.8758 23.6304C23.2601 24.2462 22.4084 24.5559 21.3799 24.5559Z" fill="#FFDC40"/>
<path d="M19.8876 12.1084L12.3542 19.6416C14.3377 21.6251 16.5553 23.1578 18.5984 23.9573C19.6187 24.3566 20.556 24.5553 21.3799 24.5553C22.4083 24.5553 23.2601 24.2456 23.8757 23.63C24.9846 22.5211 25.1009 20.6469 24.2031 18.3526C23.4037 16.3094 21.871 14.0918 19.8876 12.1084Z" fill="#FFAB15"/>
<path d="M10.8646 9.07422C10.3498 9.07422 9.94638 9.19903 9.69544 9.44997C9.16313 9.98228 9.19826 11.202 9.78938 12.7127C10.4964 14.5197 11.8795 16.5083 13.6836 18.3126C15.4879 20.1168 17.4766 21.4998 19.2835 22.2068C20.7943 22.798 22.0139 22.8331 22.5463 22.3007C23.0786 21.7684 23.0434 20.5487 22.4523 19.038C21.7453 17.231 20.3622 15.2423 18.5581 13.4381C16.7538 11.6339 14.7652 10.2509 12.9582 9.54391C12.1595 9.23134 11.4421 9.07422 10.8646 9.07422Z" fill="#FFAB15"/>
<path d="M22.4523 19.0384C21.7453 17.2314 20.3622 15.2427 18.5581 13.4385L13.6836 18.3129C15.4878 20.1171 17.4765 21.5001 19.2835 22.2071C20.7943 22.7983 22.0138 22.8334 22.5462 22.301C23.0787 21.7689 23.0435 20.5491 22.4523 19.0384Z" fill="#FF9400"/>
<path d="M16.8668 16.4588L15.5374 15.1295C16.7456 13.9212 17.9672 13.8818 18.9489 13.8501C19.7965 13.8227 20.4091 13.803 21.0916 13.1204C21.7741 12.438 21.7938 11.8255 21.8211 10.9779C21.8528 9.99634 21.8922 8.77472 23.1004 7.56653C24.3085 6.35834 25.5301 6.31891 26.5118 6.28728C27.3593 6.25997 27.9718 6.24022 28.6543 5.55778C29.3368 4.87528 29.3565 4.26284 29.3838 3.41522C29.4155 2.43366 29.4549 1.21209 30.6631 0.00390625L31.9924 1.33328C31.31 2.01572 31.2903 2.62822 31.2629 3.47578C31.2313 4.45734 31.1918 5.67897 29.9836 6.88716C28.7755 8.09534 27.5539 8.13478 26.5723 8.16641C25.7247 8.19372 25.1123 8.21347 24.4298 8.89591C23.7473 9.57841 23.7276 10.1908 23.7002 11.0385C23.6686 12.02 23.6291 13.2417 22.4209 14.4498C21.2127 15.6581 19.9911 15.6975 19.0094 15.7292C18.1618 15.7565 17.5494 15.7762 16.8668 16.4588Z" fill="#B484F3"/>
<path d="M13.7352 12.8045C13.4997 11.9897 13.3296 11.4011 13.7683 10.5413C14.2069 9.68166 14.7834 9.47397 15.5812 9.18647C16.5052 8.85359 17.6551 8.43928 18.4316 6.91734C19.2081 5.39547 18.8689 4.22122 18.5962 3.27772C18.3607 2.46303 18.1906 1.87434 18.6292 1.01466L16.9546 0.160156C16.178 1.68209 16.5173 2.85628 16.79 3.79978C17.0255 4.61447 17.1956 5.20316 16.757 6.06284C16.3184 6.92253 15.7419 7.13022 14.944 7.41772C14.0201 7.75059 12.8702 8.16491 12.0937 9.68684C11.3171 11.2088 11.6564 12.383 11.9291 13.3265C12.1646 14.1412 12.3347 14.7298 11.8961 15.5895C11.8276 15.7248 11.7481 15.8541 11.6584 15.9762C12.0276 16.4733 12.4327 16.9683 12.8699 17.4546C13.1412 17.1653 13.3737 16.8302 13.5707 16.4441C14.3472 14.9221 14.0078 13.7479 13.7352 12.8045Z" fill="#86D6F2"/>
<path d="M23.4465 20.2459C24.2156 20.8566 25.1733 21.6169 26.8755 21.4769C28.5785 21.337 29.3987 20.4308 30.0577 19.7027C30.6268 19.074 31.038 18.6197 32 18.5407L31.846 16.667C30.1431 16.8069 29.3228 17.713 28.6638 18.4411C28.0948 19.0699 27.6835 19.5242 26.7215 19.6032C25.7597 19.6822 25.2798 19.3011 24.6157 18.7737C23.8467 18.1629 22.8898 17.4026 21.1867 17.5427C19.4838 17.6826 18.6635 18.5887 18.0045 19.3168C17.4619 19.9164 17.0616 20.3564 16.1917 20.4646C16.8558 20.9461 17.5223 21.3619 18.1757 21.701C18.6875 21.3631 19.0638 20.9479 19.3983 20.5784C19.9675 19.9497 20.3787 19.4954 21.3407 19.4164C22.3028 19.3372 22.7825 19.7184 23.4465 20.2459Z" fill="#F4717A"/>
<path d="M12.5275 5.51456C13.2198 5.51456 13.7809 4.95341 13.7809 4.26119C13.7809 3.56897 13.2198 3.00781 12.5275 3.00781C11.8353 3.00781 11.2742 3.56897 11.2742 4.26119C11.2742 4.95341 11.8353 5.51456 12.5275 5.51456Z" fill="#B484F3"/>
<path d="M29.7392 24.9638C30.4314 24.9638 30.9926 24.4026 30.9926 23.7104C30.9926 23.0182 30.4314 22.457 29.7392 22.457C29.047 22.457 28.4858 23.0182 28.4858 23.7104C28.4858 24.4026 29.047 24.9638 29.7392 24.9638Z" fill="#86D6F2"/>
<path d="M27.1919 15.2294C27.8841 15.2294 28.4452 14.6683 28.4452 13.976C28.4452 13.2838 27.8841 12.7227 27.1919 12.7227C26.4996 12.7227 25.9385 13.2838 25.9385 13.976C25.9385 14.6683 26.4996 15.2294 27.1919 15.2294Z" fill="#F4717A"/>
<path d="M24.3718 4.26139C25.064 4.26139 25.6251 3.70023 25.6251 3.00801C25.6251 2.31579 25.064 1.75464 24.3718 1.75464C23.6795 1.75464 23.1184 2.31579 23.1184 3.00801C23.1184 3.70023 23.6795 4.26139 24.3718 4.26139Z" fill="#F4717A"/>
</g>
<defs>
<clipPath id="clip0_6433_3714">
<rect width="32" height="32" fill="white"/>
</clipPath>
</defs>
</svg>
