<svg width="16" height="16" viewBox="0 0 16 16" fill="none" xmlns="http://www.w3.org/2000/svg">
<g clip-path="url(#clip0_6433_3764)">
<path fill-rule="evenodd" clip-rule="evenodd" d="M8 0.421875C9.76262 0.421875 11.3847 1.02375 12.672 2.03316L13.476 1.22925C13.6339 1.07119 13.9127 1.15656 13.9424 1.38844L14.3675 4.70422C14.3903 4.88272 14.2387 5.03431 14.0603 5.01144L10.7445 4.58634C10.5126 4.55666 10.4272 4.27778 10.5854 4.11981L11.3471 3.35812C10.4059 2.67841 9.24975 2.27775 8 2.27775C4.83953 2.27775 2.27778 4.8395 2.27778 8C2.27778 8.51834 2.34669 9.02056 2.47584 9.49806L2.13644 9.45456C1.57197 9.38222 1.04684 9.57537 0.668906 9.92566C0.507813 9.31072 0.421875 8.66541 0.421875 8C0.421875 3.81491 3.81494 0.421875 8 0.421875ZM2.05763 14.6116C2.08734 14.8434 2.36616 14.9288 2.52413 14.7708L3.32803 13.9668C4.61534 14.9762 6.23744 15.5781 8 15.5781C12.1851 15.5781 15.5781 12.1851 15.5781 8C15.5781 7.33459 15.4922 6.68928 15.3312 6.07434C14.9532 6.42462 14.4281 6.61781 13.8636 6.54541L13.5243 6.50191C13.6534 6.97938 13.7223 7.48162 13.7223 7.99997C13.7223 11.1604 11.1605 13.7222 8.00003 13.7222C6.75028 13.7222 5.59422 13.3216 4.65303 12.6418L5.41469 11.8801C5.57284 11.7221 5.4875 11.4432 5.25556 11.4135L1.93981 10.9885C1.76134 10.9657 1.60969 11.1172 1.63256 11.2958L2.05763 14.6116Z" fill="#4ECDC4"/>
</g>
<defs>
<clipPath id="clip0_6433_3764">
<rect width="16" height="16" fill="white"/>
</clipPath>
</defs>
</svg>
