<svg width="24" height="24" viewBox="0 0 24 24" fill="none" xmlns="http://www.w3.org/2000/svg">
<g clip-path="url(#clip0_6328_2049)">
<path d="M3.67119 2.83236H3.66917C3.55738 2.83212 3.44665 2.85402 3.34338 2.89681C3.24011 2.9396 3.14633 3.00242 3.06747 3.08165C2.98707 3.16145 2.92332 3.25642 2.87993 3.36106C2.83654 3.4657 2.81436 3.57791 2.8147 3.69119V16.5692C2.8147 17.0415 3.2004 17.4266 3.67458 17.4278C5.67362 17.4326 9.0228 17.8492 11.3333 20.2671V6.78987C11.3333 6.62978 11.2924 6.4794 11.2152 6.35496C9.31888 3.30105 5.67475 2.83704 3.67119 2.83236ZM21.1852 16.5692V3.69111C21.1852 3.46064 21.0954 3.24416 20.9324 3.08157C20.8536 3.00236 20.7598 2.93955 20.6565 2.89677C20.5533 2.85398 20.4426 2.83206 20.3308 2.83228H20.3287C18.3252 2.83704 14.6811 3.30105 12.7847 6.35496C12.7075 6.4794 12.6667 6.62978 12.6667 6.78987V20.267C14.9772 17.8491 18.3263 17.4325 20.3254 17.4277C20.7995 17.4265 21.1852 17.0414 21.1852 16.5692Z" fill="#4ECDC4"/>
<path d="M23.1413 5.80225H22.5186V16.5692C22.5186 17.775 21.5362 18.7582 20.3286 18.7612C18.633 18.7652 15.8372 19.0968 13.8572 20.9708C17.2817 20.1323 20.8917 20.6774 22.9491 21.1462C23.0751 21.1753 23.2061 21.1755 23.3322 21.1467C23.4583 21.118 23.5763 21.0611 23.6773 20.9802C23.7782 20.9 23.8597 20.798 23.9156 20.6819C23.9715 20.5657 24.0003 20.4384 24 20.3094V6.66092C24.0001 6.18746 23.6148 5.80225 23.1413 5.80225ZM1.48138 16.5692V5.80225H0.85867C0.385294 5.80225 0 6.18746 0 6.66092V20.3092C0 20.5718 0.117657 20.8164 0.322749 20.98C0.423707 21.0609 0.541671 21.1178 0.667784 21.1465C0.793898 21.1753 0.924885 21.1751 1.05091 21.146C3.10829 20.677 6.71841 20.1321 10.1427 20.9705C8.16278 19.0966 5.36697 18.7651 3.67137 18.7611C2.46385 18.7582 1.48138 17.775 1.48138 16.5692Z" fill="#4ECDC4"/>
</g>
<defs>
<clipPath id="clip0_6328_2049">
<rect width="24" height="24" fill="white"/>
</clipPath>
</defs>
</svg>
