<svg width="20" height="20" viewBox="0 0 20 20" fill="none" xmlns="http://www.w3.org/2000/svg">
<path d="M16.25 7.5H11.25V2.5H3.75V17.5H16.25V7.5ZM15.7324 6.25L12.5 3.01758V6.25H15.7324ZM3.125 1.25H12.5L17.5 6.25V18.125C17.5 18.2908 17.4342 18.4497 17.3169 18.5669C17.1997 18.6842 17.0408 18.75 16.875 18.75H3.125C2.95924 18.75 2.80027 18.6842 2.68306 18.5669C2.56585 18.4497 2.5 18.2908 2.5 18.125V1.875C2.5 1.70924 2.56585 1.55027 2.68306 1.43306C2.80027 1.31585 2.95924 1.25 3.125 1.25ZM6.25 10H13.75V11.25H6.25V10ZM6.25 6.25H9.375V7.5H6.25V6.25ZM6.25 13.75H13.75V15H6.25V13.75Z" fill="#4ECDC4"/>
</svg>
