<svg width="24" height="24" viewBox="0 0 24 24" fill="none" xmlns="http://www.w3.org/2000/svg">
<path d="M1.725 21.8774C1.95375 21.9824 2.19 22.0311 2.42625 22.0311C2.81625 22.0311 3.2025 21.8924 3.51375 21.6224L4.335 20.9136C4.75523 20.5476 5.28006 20.3233 5.835 20.2724L7.4475 20.1261C8.12971 20.0665 8.76465 19.7528 9.22652 19.2472C9.68838 18.7416 9.94347 18.0809 9.94125 17.3961V12.5474L12 11.1374L14.0588 12.5474V17.3961C14.0588 18.8211 15.1312 19.9949 16.5525 20.1261L18.165 20.2724C18.7237 20.3249 19.2412 20.5461 19.665 20.9136L20.4862 21.6224C20.7277 21.8335 21.0253 21.97 21.3428 22.0153C21.6603 22.0605 21.9842 22.0126 22.275 21.8774C22.875 21.6036 23.25 21.0186 23.25 20.3586V14.1861C23.25 10.2374 19.995 5.47114 15.9525 5.47114C14.91 5.47114 14.0588 6.31864 14.0588 7.36489V10.1031L13.11 9.14801V2.34326C13.11 2.24381 13.0705 2.14842 13.0002 2.0781C12.9298 2.00777 12.8345 1.96826 12.735 1.96826H11.2642C11.1648 1.96826 11.0694 2.00777 10.9991 2.0781C10.9288 2.14842 10.8892 2.24381 10.8892 2.34326V9.14801L9.94125 10.1024V7.36489C9.94125 6.31864 9.09 5.47114 8.0475 5.47114C4.005 5.47114 0.75 10.2374 0.75 14.1861V20.3586C0.75 21.0186 1.125 21.6036 1.725 21.8774ZM4.70625 11.7486C5.4075 12.9036 6.6075 12.8399 6.66 12.8361H6.68625L8.02125 11.9586C8.10384 11.9041 8.20469 11.8845 8.30171 11.9042C8.39872 11.9238 8.48396 11.9812 8.53875 12.0636C8.655 12.2399 8.60625 12.4724 8.43375 12.5849L6.8775 13.6049L6.87375 13.6424C6.78 14.2874 6.62625 14.8124 6.3975 15.2549C6.3075 15.4311 6.21 15.7649 6.27375 16.3424C6.2795 16.3914 6.27551 16.4411 6.26202 16.4885C6.24854 16.536 6.22581 16.5803 6.19516 16.619C6.1645 16.6577 6.12651 16.6899 6.08337 16.7139C6.04023 16.7378 5.99278 16.753 5.94375 16.7586H5.9025C5.715 16.7586 5.55 16.6161 5.53125 16.4249C5.46 15.8099 5.53125 15.2999 5.73375 14.9099C5.84625 14.6961 5.9325 14.4561 6.00375 14.1861C5.82375 14.2949 5.625 14.3849 5.415 14.4524C4.60875 14.7111 4.0125 15.4311 3.8925 16.2899C3.86625 16.4774 3.705 16.6161 3.52125 16.6161C3.5025 16.6161 3.4875 16.6124 3.46875 16.6124C3.3703 16.5984 3.28141 16.546 3.22163 16.4665C3.16186 16.387 3.13609 16.2871 3.15 16.1886C3.31125 15.0449 4.11 14.0849 5.18625 13.7361C5.385 13.6724 5.58 13.5786 5.7525 13.4549C5.2125 13.2936 4.54875 12.9336 4.065 12.1386C3.96 11.9624 4.01625 11.7299 4.1925 11.6211C4.36875 11.5161 4.60125 11.5724 4.70625 11.7486ZM17.3175 12.8361H17.34C17.3962 12.8399 18.5925 12.8999 19.2938 11.7486C19.3988 11.5724 19.6313 11.5161 19.8075 11.6211C19.9837 11.7299 20.04 11.9624 19.935 12.1386C19.4513 12.9336 18.7875 13.2936 18.2475 13.4549C18.4312 13.5824 18.6187 13.6761 18.8137 13.7361C19.89 14.0849 20.6887 15.0449 20.85 16.1886C20.8639 16.2871 20.8381 16.387 20.7784 16.4665C20.7186 16.546 20.6297 16.5984 20.5312 16.6124C20.5125 16.6124 20.4975 16.6161 20.4788 16.6161C20.295 16.6161 20.1337 16.4774 20.1075 16.2899C19.9875 15.4311 19.3913 14.7111 18.585 14.4524C18.3787 14.3849 18.1838 14.2986 17.9963 14.1861C18.0675 14.4561 18.1537 14.6961 18.2663 14.9099C18.4688 15.2999 18.54 15.8099 18.4688 16.4249C18.45 16.6161 18.285 16.7586 18.0975 16.7586H18.0563C18.0072 16.753 17.9598 16.7378 17.9166 16.7139C17.8735 16.6899 17.8355 16.6577 17.8048 16.619C17.7742 16.5803 17.7515 16.536 17.738 16.4885C17.7245 16.4411 17.7205 16.3914 17.7262 16.3424C17.79 15.7649 17.6925 15.4311 17.6025 15.2549C17.3737 14.8124 17.22 14.2874 17.1262 13.6424L17.1225 13.6049L15.5662 12.5849C15.5249 12.5577 15.4894 12.5226 15.4618 12.4816C15.4341 12.4407 15.4148 12.3946 15.4051 12.3462C15.3953 12.2977 15.3953 12.2478 15.4049 12.1993C15.4145 12.1508 15.4337 12.1047 15.4613 12.0636C15.5737 11.8911 15.8063 11.8461 15.9788 11.9586L17.3175 12.8361ZM11.5301 9.56651C11.5998 9.49629 11.6389 9.40141 11.6389 9.30251V2.71826H12.36V9.30251C12.3601 9.40146 12.3993 9.49636 12.4691 9.56651L14.0588 11.1674V11.6384L12.2119 10.3735C12.2104 10.3724 12.2081 10.3724 12.2066 10.3713C12.1804 10.354 12.1511 10.3458 12.1222 10.3353C12.105 10.3293 12.0893 10.3188 12.0716 10.3154C12.048 10.3109 12.024 10.315 12.0004 10.315C11.976 10.315 11.952 10.3109 11.9288 10.3154C11.9107 10.3191 11.895 10.3296 11.8774 10.3356C11.8485 10.3458 11.8193 10.3544 11.7934 10.3713C11.7919 10.3724 11.7896 10.3724 11.7881 10.3735L9.94125 11.6384V11.1666L11.5301 9.56651Z" fill="#4ECDC4"/>
</svg>
