<svg width="20" height="20" viewBox="0 0 20 20" fill="none" xmlns="http://www.w3.org/2000/svg">
<path d="M7.5 17.5H12.5M15 8.125V9.375C15 12.125 12.75 14.375 10 14.375M10 14.375C7.25 14.375 5 12.125 5 9.375V8.125M10 14.375V17.5" stroke="#4ECDC4" stroke-width="1.25" stroke-linecap="round" stroke-linejoin="round"/>
<path d="M10 2.50003C9.67126 2.49838 9.34543 2.56191 9.04137 2.68696C8.7373 2.81201 8.46105 2.99609 8.22857 3.22857C7.99609 3.46105 7.81201 3.73731 7.68696 4.04137C7.56191 4.34543 7.49838 4.67126 7.50003 5.00003V9.33597C7.50003 10.711 8.63284 11.875 10 11.875C11.3672 11.875 12.5 10.7422 12.5 9.33597V5.00003C12.5 3.59378 11.4063 2.50003 10 2.50003Z" stroke="#4ECDC4" stroke-width="1.25" stroke-linecap="round" stroke-linejoin="round"/>
</svg>
