<svg width="24" height="24" viewBox="0 0 24 24" fill="none" xmlns="http://www.w3.org/2000/svg">
<path d="M11.4001 3.60003C11.5592 3.60003 11.7118 3.66325 11.8244 3.77577C11.9369 3.88829 12.0001 4.0409 12.0001 4.20003C12.0001 4.35916 11.9369 4.51178 11.8244 4.6243C11.7118 4.73682 11.5592 4.80003 11.4001 4.80003H7.2001C6.56358 4.80003 5.95313 5.05289 5.50304 5.50298C5.05295 5.95307 4.8001 6.56352 4.8001 7.20004V16.8C4.8001 17.4366 5.05295 18.047 5.50304 18.4971C5.95313 18.9472 6.56358 19.2 7.2001 19.2H16.8001C17.4366 19.2 18.0471 18.9472 18.4972 18.4971C18.9472 18.047 19.2001 17.4366 19.2001 16.8V15C19.2001 14.8409 19.2633 14.6883 19.3758 14.5758C19.4884 14.4632 19.641 14.4 19.8001 14.4C19.9592 14.4 20.1118 14.4632 20.2244 14.5758C20.3369 14.6883 20.4001 14.8409 20.4001 15V16.8C20.4001 17.7548 20.0208 18.6705 19.3457 19.3456C18.6706 20.0208 17.7549 20.4 16.8001 20.4H7.2001C6.24532 20.4 5.32964 20.0208 4.65451 19.3456C3.97938 18.6705 3.6001 17.7548 3.6001 16.8V7.20004C3.6001 6.24526 3.97938 5.32958 4.65451 4.65445C5.32964 3.97932 6.24532 3.60003 7.2001 3.60003H11.4001ZM15.9565 2.45163C16.0625 2.40441 16.1798 2.38891 16.2944 2.40701C16.409 2.42511 16.5159 2.47604 16.6021 2.55363L22.6021 7.95363C22.6648 8.0099 22.7149 8.07873 22.7492 8.15564C22.7835 8.23255 22.8012 8.31582 22.8012 8.40003C22.8012 8.48425 22.7835 8.56752 22.7492 8.64443C22.7149 8.72134 22.6648 8.79017 22.6021 8.84644L16.6021 14.2464C16.5159 14.3242 16.4089 14.3754 16.2942 14.3936C16.1795 14.4118 16.062 14.3964 15.9559 14.3491C15.8498 14.3018 15.7598 14.2248 15.6966 14.1273C15.6334 14.0299 15.5999 13.9162 15.6001 13.8V11.208C13.9201 11.3616 12.4021 12.144 11.1601 13.1376C9.9433 14.1132 9.0301 15.2592 8.5261 16.1184L8.3365 16.4676C8.27601 16.5883 8.17658 16.6851 8.05428 16.7423C7.93199 16.7995 7.79398 16.8138 7.66257 16.7828C7.53116 16.7519 7.41402 16.6775 7.3301 16.5718C7.24618 16.466 7.20038 16.335 7.2001 16.2C7.2001 13.7412 7.6585 11.0592 9.0229 8.97123C10.3309 6.96963 12.4405 5.57163 15.6001 5.41563V3.00003L15.6061 2.91243C15.6209 2.81231 15.6608 2.71755 15.722 2.63698C15.7833 2.55641 15.864 2.49265 15.9565 2.45163Z" fill="#A0A0A0"/>
</svg>
