<svg width="24" height="24" viewBox="0 0 24 24" fill="none" xmlns="http://www.w3.org/2000/svg">
<path d="M8.14293 12.0001C8.14293 12.3411 8.00747 12.6681 7.76635 12.9092C7.52523 13.1503 7.19821 13.2858 6.85721 13.2858C6.51622 13.2858 6.18919 13.1503 5.94808 12.9092C5.70696 12.6681 5.5715 12.3411 5.5715 12.0001C5.5715 11.6591 5.70696 11.3321 5.94808 11.0909C6.18919 10.8498 6.51622 10.7144 6.85721 10.7144C7.19821 10.7144 7.52523 10.8498 7.76635 11.0909C8.00747 11.3321 8.14293 11.6591 8.14293 12.0001ZM13.2858 12.0001C13.2858 12.3411 13.1503 12.6681 12.9092 12.9092C12.6681 13.1503 12.3411 13.2858 12.0001 13.2858C11.6591 13.2858 11.3321 13.1503 11.0909 12.9092C10.8498 12.6681 10.7144 12.3411 10.7144 12.0001C10.7144 11.6591 10.8498 11.3321 11.0909 11.0909C11.3321 10.8498 11.6591 10.7144 12.0001 10.7144C12.3411 10.7144 12.6681 10.8498 12.9092 11.0909C13.1503 11.3321 13.2858 11.6591 13.2858 12.0001ZM18.4286 12.0001C18.4286 12.3411 18.2932 12.6681 18.0521 12.9092C17.8109 13.1503 17.4839 13.2858 17.1429 13.2858C16.8019 13.2858 16.4749 13.1503 16.2338 12.9092C15.9927 12.6681 15.8572 12.3411 15.8572 12.0001C15.8572 11.6591 15.9927 11.3321 16.2338 11.0909C16.4749 10.8498 16.8019 10.7144 17.1429 10.7144C17.4839 10.7144 17.8109 10.8498 18.0521 11.0909C18.2932 11.3321 18.4286 11.6591 18.4286 12.0001ZM12.0001 1.71436C6.31978 1.71436 1.71436 6.31978 1.71436 12.0001C1.71436 17.6804 6.31978 22.2858 12.0001 22.2858C17.6804 22.2858 22.2858 17.6804 22.2858 12.0001C22.2858 6.31978 17.6804 1.71436 12.0001 1.71436ZM3.00007 12.0001C3.00007 7.0295 7.0295 3.00007 12.0001 3.00007C16.9706 3.00007 21.0001 7.0295 21.0001 12.0001C21.0001 16.9706 16.9706 21.0001 12.0001 21.0001C7.0295 21.0001 3.00007 16.9706 3.00007 12.0001Z" fill="#4ECDC4"/>
</svg>
