<svg width="20" height="20" viewBox="0 0 20 20" fill="none" xmlns="http://www.w3.org/2000/svg">
<path fill-rule="evenodd" clip-rule="evenodd" d="M12.0217 6.49323L13.1034 10.1707C13.2303 10.6024 13.4935 10.9814 13.8538 11.2511C14.214 11.5207 14.6518 11.6665 15.1017 11.6666H17.5001C17.7211 11.6666 17.9331 11.5788 18.0893 11.4225C18.2456 11.2662 18.3334 11.0542 18.3334 10.8332C18.3334 10.6122 18.2456 10.4003 18.0893 10.244C17.9331 10.0877 17.7211 9.9999 17.5001 9.9999H15.1017C15.0117 9.99995 14.9241 9.97083 14.8519 9.9169C14.7798 9.86297 14.7271 9.78713 14.7017 9.70073L13.2517 4.76907C12.9084 3.5999 11.2667 3.56323 10.8701 4.7149L7.44175 14.6916L6.08925 11.3099C5.93458 10.923 5.66744 10.5914 5.32236 10.3578C4.97727 10.1243 4.57009 9.99963 4.15341 9.9999H2.50008C2.27907 9.9999 2.06711 10.0877 1.91083 10.244C1.75455 10.4003 1.66675 10.6122 1.66675 10.8332C1.66675 11.0542 1.75455 11.2662 1.91083 11.4225C2.06711 11.5788 2.27907 11.6666 2.50008 11.6666H4.15341C4.23677 11.6664 4.31825 11.6913 4.38733 11.7379C4.45641 11.7846 4.50991 11.8509 4.54091 11.9282L6.31008 16.3516C6.74008 17.4274 8.27675 17.3891 8.65258 16.2932L12.0217 6.49323Z" fill="#A0A0A0"/>
</svg>
