<svg width="24" height="24" viewBox="0 0 24 24" fill="none" xmlns="http://www.w3.org/2000/svg">
<path d="M10.875 19.875V11.25H13.125V19.875C13.125 20.1734 13.0065 20.4595 12.7955 20.6705C12.5845 20.8815 12.2984 21 12 21C11.7016 21 11.4155 20.8815 11.2045 20.6705C10.9935 20.4595 10.875 20.1734 10.875 19.875ZM13.125 4.125V7.5H14.25C14.5484 7.5 14.8345 7.61853 15.0455 7.8295C15.2565 8.04048 15.375 8.32663 15.375 8.625C15.375 8.92337 15.2565 9.20952 15.0455 9.4205C14.8345 9.63147 14.5484 9.75 14.25 9.75H9.75C9.45163 9.75 9.16548 9.63147 8.9545 9.4205C8.74353 9.20952 8.625 8.92337 8.625 8.625C8.625 8.32663 8.74353 8.04048 8.9545 7.8295C9.16548 7.61853 9.45163 7.5 9.75 7.5H10.875V4.125C10.875 3.82663 10.9935 3.54048 11.2045 3.3295C11.4155 3.11853 11.7016 3 12 3C12.2984 3 12.5845 3.11853 12.7955 3.3295C13.0065 3.54048 13.125 3.82663 13.125 4.125ZM3.375 14.25C3.07663 14.25 2.79048 14.3685 2.5795 14.5795C2.36853 14.7905 2.25 15.0766 2.25 15.375C2.25 15.6734 2.36853 15.9595 2.5795 16.1705C2.79048 16.3815 3.07663 16.5 3.375 16.5H7.875C8.17337 16.5 8.45952 16.3815 8.6705 16.1705C8.88147 15.9595 9 15.6734 9 15.375C9 15.0766 8.88147 14.7905 8.6705 14.5795C8.45952 14.3685 8.17337 14.25 7.875 14.25H6.75V4.125C6.75 3.82663 6.63147 3.54048 6.4205 3.3295C6.20952 3.11853 5.92337 3 5.625 3C5.32663 3 5.04048 3.11853 4.8295 3.3295C4.61853 3.54048 4.5 3.82663 4.5 4.125V14.25H3.375ZM15 15.375C15 15.0766 15.1185 14.7905 15.3295 14.5795C15.5405 14.3685 15.8266 14.25 16.125 14.25H17.25V4.125C17.25 3.82663 17.3685 3.54048 17.5795 3.3295C17.7905 3.11853 18.0766 3 18.375 3C18.6734 3 18.9595 3.11853 19.1705 3.3295C19.3815 3.54048 19.5 3.82663 19.5 4.125V14.25H20.625C20.9234 14.25 21.2095 14.3685 21.4205 14.5795C21.6315 14.7905 21.75 15.0766 21.75 15.375C21.75 15.6734 21.6315 15.9595 21.4205 16.1705C21.2095 16.3815 20.9234 16.5 20.625 16.5H16.125C15.8266 16.5 15.5405 16.3815 15.3295 16.1705C15.1185 15.9595 15 15.6734 15 15.375ZM4.5 18V19.875C4.5 20.1734 4.61853 20.4595 4.8295 20.6705C5.04048 20.8815 5.32663 21 5.625 21C5.92337 21 6.20952 20.8815 6.4205 20.6705C6.63147 20.4595 6.75 20.1734 6.75 19.875V18H4.5ZM17.25 19.875V18H19.5V19.875C19.5 20.1734 19.3815 20.4595 19.1705 20.6705C18.9595 20.8815 18.6734 21 18.375 21C18.0766 21 17.7905 20.8815 17.5795 20.6705C17.3685 20.4595 17.25 20.1734 17.25 19.875Z" fill="#4ECDC4"/>
</svg>
