<svg width="24" height="24" viewBox="0 0 24 24" fill="none" xmlns="http://www.w3.org/2000/svg">
<path d="M12.8498 2.33402C12.3692 1.88866 11.6269 1.88866 11.1502 2.33402L2.39871 10.4598C2.02365 10.8114 1.89863 11.3544 2.08616 11.831C2.27369 12.3076 2.7308 12.6241 3.24652 12.6241L4.49555 11.999V19.4998C4.49555 20.8788 4.99292 22 6.37206 22H17.624C19.0032 22 19.4982 20.8789 19.4982 19.4999V11.999L20.7496 12.6241C21.2653 12.6241 21.7263 12.3076 21.9138 11.831C22.1014 11.3544 21.9764 10.8075 21.6013 10.4598L19.4982 8.50707V5.87768V4.49841V3.87335V3.24829H19.1856H18.8731H18.248H17.6228H16.9977V3.87335V4.49841L17.005 6.19218L16.174 5.42054L12.8498 2.33402ZM9.81016 11.999C9.81016 10.7919 10.7908 9.81131 11.998 9.81131C13.2053 9.81131 14.1859 10.7919 14.1859 11.999C14.1859 13.2062 13.2053 14.1867 11.998 14.1867C10.7908 14.1867 9.81016 13.2062 9.81016 11.999ZM7.62228 18.8747C7.62228 17.148 9.02096 15.7494 10.7478 15.7494H13.2483C14.9751 15.7494 16.3738 17.148 16.3738 18.8747C16.3738 19.2185 16.0925 19.4998 15.7487 19.4998H8.24739C7.90358 19.4998 7.62228 19.2185 7.62228 18.8747Z" fill="#A0A0A0"/>
</svg>
