<svg width="24" height="24" viewBox="0 0 24 24" fill="none" xmlns="http://www.w3.org/2000/svg">
<path d="M14.35 6.04974C14.07 5.15974 13.34 4.42974 12.45 4.14974C10.94 3.66974 9.51 4.37974 8.86 5.56974C8.51 6.21974 9.03 6.99974 9.77 6.99974H9.78C10.12 6.99974 10.46 6.83974 10.62 6.53974C10.79 6.21974 11.12 5.99974 11.51 5.99974C12.06 5.99974 12.51 6.44974 12.51 6.99974C12.51 7.54974 12.06 7.99974 11.51 7.99974H3C2.45 7.99974 2 8.44974 2 8.99974C2 9.54974 2.45 9.99974 3 9.99974H11.5C13.46 9.99974 15 8.09974 14.35 6.04974ZM18.91 18.3297C18.7598 18.9559 18.4394 19.5284 17.984 19.9837C17.5287 20.4391 16.9562 20.7596 16.33 20.9097C14.57 21.3097 12.96 20.3797 12.31 18.9297C12 18.2597 12.48 17.4997 13.21 17.4997C13.6 17.4997 13.96 17.7197 14.11 18.0697C14.2232 18.3452 14.4158 18.5808 14.6634 18.7464C14.9109 18.9121 15.2022 19.0002 15.5 18.9997C16.33 18.9997 17 18.3297 17 17.4997C17 16.6697 16.33 15.9997 15.5 15.9997H3C2.45 15.9997 2 15.5497 2 14.9997C2 14.4497 2.45 13.9997 3 13.9997H15.5C17.7 13.9997 19.43 16.0397 18.91 18.3297ZM18.4 12.9997H3C2.45 12.9997 2 12.5497 2 11.9997C2 11.4497 2.45 10.9997 3 10.9997H18.5C19.33 10.9997 20 10.3297 20 9.49974C20.0005 9.2019 19.9123 8.91065 19.7467 8.6631C19.5811 8.41556 19.3455 8.22292 19.07 8.10974C18.71 7.95974 18.5 7.59974 18.5 7.20974C18.5 6.47974 19.26 5.99974 19.93 6.29974C20.6623 6.62755 21.2603 7.19638 21.6242 7.91147C21.9881 8.62656 22.096 9.44474 21.93 10.2297C21.59 11.8697 20.07 12.9997 18.4 12.9997Z" fill="#4ECDC4"/>
</svg>
