<svg width="16" height="16" viewBox="0 0 16 16" fill="none" xmlns="http://www.w3.org/2000/svg">
<g clip-path="url(#clip0_6433_3774)">
<path d="M11.0588 8.94076C11.1836 8.94076 11.3033 8.99034 11.3916 9.07859C11.4798 9.16684 11.5294 9.28654 11.5294 9.41135C11.5294 9.53615 11.4798 9.65585 11.3916 9.7441C11.3033 9.83236 11.1836 9.88194 11.0588 9.88194H11.0044C10.8307 9.88193 10.6591 9.92041 10.502 9.99461C10.3448 10.0688 10.2061 10.1769 10.0957 10.3111C9.56162 10.961 8.85056 11.2937 7.99997 11.2937C7.14938 11.2937 6.43856 10.961 5.90421 10.3111C5.79383 10.1769 5.6551 10.0688 5.49799 9.99461C5.34087 9.92041 5.16926 9.88193 4.9955 9.88194H4.94115C4.81634 9.88194 4.69664 9.83236 4.60839 9.7441C4.52014 9.65585 4.47056 9.53615 4.47056 9.41135C4.47056 9.28654 4.52014 9.16684 4.60839 9.07859C4.69664 8.99034 4.81634 8.94076 4.94115 8.94076H4.99527C5.3081 8.94072 5.61707 9.00999 5.89994 9.14359C6.18282 9.2772 6.43258 9.47182 6.63127 9.71346C6.98585 10.1448 7.42962 10.3525 7.99997 10.3525C8.57032 10.3525 9.01409 10.1448 9.36868 9.71346C9.56737 9.47182 9.81712 9.2772 10.1 9.14359C10.3829 9.00999 10.6918 8.94072 11.0047 8.94076H11.0588ZM4.23338 10.1793C4.28857 10.2092 4.33724 10.2497 4.37653 10.2986C4.41582 10.3476 4.44493 10.4038 4.46215 10.4642C4.47937 10.5245 4.48436 10.5876 4.47681 10.6499C4.46927 10.7122 4.44935 10.7723 4.41823 10.8268C4.3871 10.8813 4.3454 10.929 4.29557 10.9671C4.24574 11.0052 4.1888 11.033 4.12808 11.0488C4.06736 11.0646 4.0041 11.0681 3.94202 11.059C3.87993 11.05 3.82028 11.0287 3.76656 10.9963L2.93644 10.5222C2.61621 10.3391 2.35004 10.0747 2.16493 9.75566C1.97981 9.43662 1.88232 9.07432 1.88232 8.70546C1.88232 7.96852 2.21315 7.27064 2.7835 6.80429L3.49691 6.22029C4.14153 5.69295 4.56248 4.94101 4.67503 4.11582L5.18091 0.406641C5.18848 0.344758 5.20827 0.284995 5.23912 0.230824C5.26998 0.176653 5.3113 0.129154 5.36067 0.0910854C5.41004 0.0530166 5.46648 0.0251373 5.52672 0.00906702C5.58696 -0.0070033 5.64979 -0.0109443 5.71156 -0.00252715C5.77333 0.00589004 5.83281 0.0264976 5.88656 0.0580986C5.9403 0.0896996 5.98722 0.131664 6.02461 0.181554C6.06199 0.231444 6.08909 0.288266 6.10433 0.348718C6.11957 0.409171 6.12265 0.472048 6.11338 0.533699L5.6075 4.24288C5.46286 5.30387 4.92169 6.2707 4.09291 6.94876L3.37927 7.53252C3.20555 7.67467 3.06558 7.85364 2.96946 8.05649C2.87335 8.25933 2.82349 8.481 2.8235 8.70546C2.8235 9.11864 3.04468 9.50005 3.4035 9.70499L4.23338 10.1793ZM9.88656 0.533699C9.87822 0.472457 9.88202 0.410171 9.89775 0.350398C9.91348 0.290625 9.94082 0.234535 9.97823 0.185331C10.0156 0.136127 10.0624 0.0947719 10.1158 0.0636277C10.1691 0.0324835 10.2281 0.0121599 10.2894 0.00381705C10.3506 -0.00452575 10.4129 -0.000724284 10.4727 0.0150044C10.5325 0.0307331 10.5885 0.058081 10.6378 0.0954866C10.687 0.132892 10.7283 0.179623 10.7595 0.233011C10.7906 0.286399 10.8109 0.345398 10.8193 0.406641L11.3251 4.11582C11.4376 4.94098 11.8585 5.69291 12.503 6.22029L13.2167 6.80405C13.4983 7.03448 13.7252 7.3246 13.881 7.65343C14.0368 7.98225 14.1176 8.34159 14.1176 8.70546C14.1176 9.07432 14.0201 9.43662 13.835 9.75566C13.6499 10.0747 13.3837 10.3391 13.0635 10.5222L12.2334 10.9963C12.1797 11.0287 12.12 11.05 12.0579 11.059C11.9958 11.0681 11.9326 11.0646 11.8719 11.0488C11.8111 11.033 11.7542 11.0052 11.7044 10.9671C11.6545 10.929 11.6128 10.8813 11.5817 10.8268C11.5506 10.7723 11.5307 10.7122 11.5231 10.6499C11.5156 10.5876 11.5206 10.5245 11.5378 10.4642C11.555 10.4038 11.5841 10.3476 11.6234 10.2986C11.6627 10.2497 11.7114 10.2092 11.7666 10.1793L12.5964 9.70499C12.7726 9.60429 12.9191 9.4588 13.0209 9.28327C13.1228 9.10774 13.1764 8.90841 13.1764 8.70546C13.1764 8.481 13.1266 8.25933 13.0305 8.05649C12.9344 7.85364 12.7944 7.67467 12.6207 7.53252L11.907 6.94852C11.0783 6.27052 10.5371 5.30379 10.3924 4.24288L9.88656 0.533699ZM4.47056 11.9996C4.47056 11.8748 4.52014 11.7551 4.60839 11.6668C4.69664 11.5786 4.81634 11.529 4.94115 11.529C5.06596 11.529 5.18565 11.5786 5.2739 11.6668C5.36216 11.7551 5.41174 11.8748 5.41174 11.9996C5.41174 13.5589 4.1475 14.8231 2.58821 14.8231C2.4634 14.8231 2.3437 14.7735 2.25545 14.6853C2.1672 14.597 2.11762 14.4773 2.11762 14.3525C2.11762 14.2277 2.1672 14.108 2.25545 14.0198C2.3437 13.9315 2.4634 13.8819 2.58821 13.8819C3.08744 13.8819 3.56622 13.6836 3.91923 13.3306C4.27224 12.9776 4.47056 12.4988 4.47056 11.9996ZM11.5294 11.9996C11.5294 12.4988 11.7277 12.9776 12.0807 13.3306C12.4337 13.6836 12.9125 13.8819 13.4117 13.8819C13.5365 13.8819 13.6562 13.9315 13.7445 14.0198C13.8327 14.108 13.8823 14.2277 13.8823 14.3525C13.8823 14.4773 13.8327 14.597 13.7445 14.6853C13.6562 14.7735 13.5365 14.8231 13.4117 14.8231C11.8524 14.8231 10.5882 13.5589 10.5882 11.9996C10.5882 11.8748 10.6378 11.7551 10.726 11.6668C10.8143 11.5786 10.934 11.529 11.0588 11.529C11.1836 11.529 11.3033 11.5786 11.3916 11.6668C11.4798 11.7551 11.5294 11.8748 11.5294 11.9996ZM6.11762 12.9408C6.11762 12.816 6.1672 12.6963 6.25545 12.608C6.3437 12.5197 6.4634 12.4702 6.58821 12.4702C6.71301 12.4702 6.83271 12.5197 6.92096 12.608C7.00921 12.6963 7.05879 12.816 7.05879 12.9408V13.4113C7.05879 14.8408 5.89997 15.9996 4.47056 15.9996C4.34575 15.9996 4.22606 15.95 4.1378 15.8617C4.04955 15.7735 3.99997 15.6538 3.99997 15.529C3.99997 15.4042 4.04955 15.2845 4.1378 15.1962C4.22606 15.108 4.34575 15.0584 4.47056 15.0584C4.90739 15.0584 5.32632 14.8849 5.63521 14.576C5.94409 14.2671 6.11762 13.8482 6.11762 13.4113V12.9408ZM9.88232 12.9408V13.4113C9.88232 13.8482 10.0559 14.2671 10.3647 14.576C10.6736 14.8849 11.0926 15.0584 11.5294 15.0584C11.6542 15.0584 11.7739 15.108 11.8621 15.1962C11.9504 15.2845 12 15.4042 12 15.529C12 15.6538 11.9504 15.7735 11.8621 15.8617C11.7739 15.95 11.6542 15.9996 11.5294 15.9996C10.1 15.9996 8.94115 14.8408 8.94115 13.4113V12.9408C8.94115 12.816 8.99073 12.6963 9.07898 12.608C9.16723 12.5197 9.28693 12.4702 9.41174 12.4702C9.53654 12.4702 9.65624 12.5197 9.74449 12.608C9.83275 12.6963 9.88232 12.816 9.88232 12.9408Z" fill="#4ECDC4"/>
</g>
<defs>
<clipPath id="clip0_6433_3774">
<rect width="16" height="16" fill="white"/>
</clipPath>
</defs>
</svg>
