<svg width="20" height="20" viewBox="0 0 20 20" fill="none" xmlns="http://www.w3.org/2000/svg">
<path d="M8.87484 13.1251L12.9373 10.5209C13.1318 10.3959 13.229 10.2223 13.229 10.0001C13.229 9.77786 13.1318 9.60425 12.9373 9.47925L8.87484 6.87508C8.6665 6.73619 8.45456 6.72564 8.23901 6.84341C8.02345 6.96119 7.91595 7.14536 7.9165 7.39592V12.6042C7.9165 12.8542 8.02428 13.0384 8.23984 13.1567C8.45539 13.2751 8.66706 13.2645 8.87484 13.1251ZM9.99984 18.3334C8.84706 18.3334 7.76373 18.1145 6.74984 17.6767C5.73595 17.239 4.854 16.6454 4.10401 15.8959C3.354 15.1465 2.76039 14.2645 2.32317 13.2501C1.88595 12.2356 1.66706 11.1523 1.6665 10.0001C1.66595 8.84786 1.88484 7.76453 2.32317 6.75008C2.76151 5.73564 3.35512 4.85369 4.10401 4.10425C4.85289 3.3548 5.73484 2.76119 6.74984 2.32341C7.76484 1.88564 8.84817 1.66675 9.99984 1.66675C11.1515 1.66675 12.2348 1.88564 13.2498 2.32341C14.2648 2.76119 15.1468 3.3548 15.8957 4.10425C16.6446 4.85369 17.2384 5.73564 17.6773 6.75008C18.1162 7.76453 18.3348 8.84786 18.3332 10.0001C18.3315 11.1523 18.1126 12.2356 17.6765 13.2501C17.2404 14.2645 16.6468 15.1465 15.8957 15.8959C15.1446 16.6454 14.2626 17.2392 13.2498 17.6776C12.2371 18.1159 11.1537 18.3345 9.99984 18.3334ZM9.99984 16.6667C11.8609 16.6667 13.4373 16.0209 14.729 14.7292C16.0207 13.4376 16.6665 11.8612 16.6665 10.0001C16.6665 8.13897 16.0207 6.56258 14.729 5.27091C13.4373 3.97925 11.8609 3.33341 9.99984 3.33341C8.13873 3.33341 6.56234 3.97925 5.27067 5.27091C3.979 6.56258 3.33317 8.13897 3.33317 10.0001C3.33317 11.8612 3.979 13.4376 5.27067 14.7292C6.56234 16.0209 8.13873 16.6667 9.99984 16.6667Z" fill="#4ECDC4"/>
</svg>
