<svg width="24" height="24" viewBox="0 0 24 24" fill="none" xmlns="http://www.w3.org/2000/svg">
<g clip-path="url(#clip0_6454_114)">
<path d="M12 7.13921C9.28784 7.13921 7.08132 9.34573 7.08132 12.0579C7.08132 14.7701 9.28784 16.9766 12 16.9766C14.7122 16.9766 16.9187 14.7701 16.9187 12.0579C16.9187 9.34573 14.7122 7.13921 12 7.13921ZM12.9937 14.0453L11.2973 12.3489V9.94989H12.7027V11.7669L13.9874 13.0516L12.9937 14.0453ZM11.2973 0.0656738H12.7027V5.0312H11.2973V0.0656738ZM0.377197 9.0204L0.811446 7.68392L5.53367 9.21832L5.09942 10.5548L0.377197 9.0204ZM0.00585938 12.6185L4.94656 12.0971L5.09412 13.4954L0.15342 14.0168L0.00585938 12.6185ZM1.26303 17.4451L5.56313 14.9624L6.2658 16.1794L1.9657 18.6621L1.26303 17.4451ZM4.38293 21.3517L7.30266 17.3346L8.43958 18.161L5.51985 22.1781L4.38293 21.3517ZM8.81682 23.6442L9.84965 18.7878L11.2241 19.0801L10.1912 23.9365L8.81682 23.6442ZM12.7733 19.0732L14.1477 18.7809L15.1805 23.6373L13.8061 23.9296L12.7733 19.0732ZM15.5652 18.1516L16.7021 17.3253L19.6218 21.3424L18.4849 22.1687L15.5652 18.1516ZM17.7336 16.1802L18.4362 14.9632L22.7363 17.446L22.0337 18.663L17.7336 16.1802ZM18.9291 13.4859L19.0766 12.0876L24.0173 12.609L23.8698 14.0073L18.9291 13.4859ZM18.4645 9.21808L23.1867 7.68373L23.621 9.02016L18.8987 10.5545L18.4645 9.21808ZM16.7486 6.83552L20.4381 3.51353L21.3783 4.5577L17.6889 7.87969L16.7486 6.83552ZM14.2204 5.34722L16.2413 0.80877L17.5258 1.38074L15.5049 5.91919L14.2204 5.34722Z" fill="#A0A0A0"/>
</g>
<defs>
<clipPath id="clip0_6454_114">
<rect width="24" height="24" fill="white"/>
</clipPath>
</defs>
</svg>
