<svg width="24" height="24" viewBox="0 0 24 24" fill="none" xmlns="http://www.w3.org/2000/svg">
<path d="M19.1349 3.01108C19.6464 3.06352 20.1202 3.30378 20.4647 3.68538C20.8092 4.06699 20.9999 4.56281 21 5.07692V18.9231L20.9889 19.1349C20.9405 19.6103 20.7296 20.0543 20.3919 20.3923C20.0541 20.7303 19.6102 20.9415 19.1349 20.9903L18.9231 21H5.07692L4.86508 20.9889C4.38975 20.9405 3.94566 20.7296 3.60769 20.3919C3.26971 20.0541 3.05851 19.6102 3.00969 19.1349L3 18.9231V5.07692C3.00006 4.56281 3.1908 4.06699 3.53532 3.68538C3.87984 3.30378 4.35364 3.06352 4.86508 3.01108L5.07692 3H18.9231L19.1349 3.01108ZM5.07692 4.38462C4.89331 4.38462 4.71722 4.45755 4.58739 4.58739C4.45755 4.71722 4.38462 4.89331 4.38462 5.07692V18.9231C4.38462 19.1067 4.45755 19.2828 4.58739 19.4126C4.71722 19.5424 4.89331 19.6154 5.07692 19.6154H18.9231C19.1067 19.6154 19.2828 19.5424 19.4126 19.4126C19.5424 19.2828 19.6154 19.1067 19.6154 18.9231V5.07692C19.6154 4.89331 19.5424 4.71722 19.4126 4.58739C19.2828 4.45755 19.1067 4.38462 18.9231 4.38462H5.07692Z" fill="#4ECDC4"/>
</svg>
