<svg width="24" height="24" viewBox="0 0 24 24" fill="none" xmlns="http://www.w3.org/2000/svg">
<path d="M14.3463 5.9304C14.0664 5.09299 13.3366 4.40613 12.4469 4.14267C10.9373 3.69104 9.50776 4.35908 8.85795 5.47877C8.50806 6.09036 9.0279 6.82427 9.76768 6.82427H9.77768C10.1176 6.82427 10.4575 6.67372 10.6174 6.39145C10.7874 6.09036 11.1173 5.88336 11.5072 5.88336C12.057 5.88336 12.5069 6.30677 12.5069 6.82427C12.5069 7.34177 12.057 7.76518 11.5072 7.76518H2.9997C2.44987 7.76518 2 8.18859 2 8.70609C2 9.22359 2.44987 9.647 2.9997 9.647H11.4972C13.4566 9.647 14.9961 7.85927 14.3463 5.9304ZM18.905 17.4848C18.7548 18.074 18.4344 18.6126 17.9792 19.041C17.524 19.4695 16.9517 19.771 16.3257 19.9123C14.5662 20.2887 12.9567 19.4136 12.3069 18.0493C11.997 17.4189 12.4769 16.7038 13.2067 16.7038C13.5965 16.7038 13.9564 16.9108 14.1064 17.2401C14.2195 17.4994 14.4121 17.721 14.6596 17.8768C14.9071 18.0327 15.1982 18.1157 15.496 18.1152C16.3257 18.1152 16.9955 17.4848 16.9955 16.7038C16.9955 15.9229 16.3257 15.2925 15.496 15.2925H2.9997C2.44987 15.2925 2 14.869 2 14.3515C2 13.834 2.44987 13.4106 2.9997 13.4106H15.496C17.6953 13.4106 19.4248 15.3301 18.905 17.4848ZM18.3951 12.4697H2.9997C2.44987 12.4697 2 12.0463 2 11.5288C2 11.0113 2.44987 10.5879 2.9997 10.5879H18.4951C19.3248 10.5879 19.9946 9.9575 19.9946 9.17654C19.9951 8.8963 19.907 8.62226 19.7414 8.38934C19.5758 8.15642 19.3403 7.97517 19.0649 7.86868C18.705 7.72754 18.4951 7.38881 18.4951 7.02186C18.4951 6.33499 19.2548 5.88336 19.9246 6.16563C20.6568 6.47407 21.2545 7.00928 21.6183 7.68212C21.9821 8.35495 22.09 9.12479 21.924 9.86341C21.5842 11.4065 20.0646 12.4697 18.3951 12.4697Z" fill="#4ECDC4"/>
</svg>
