<svg width="24" height="24" viewBox="0 0 24 24" fill="none" xmlns="http://www.w3.org/2000/svg">
<g clip-path="url(#clip0_6454_130)">
<path d="M23.2809 14.63L21.0749 12.905C21.1029 12.639 21.1269 12.328 21.1269 11.999C21.1269 11.67 21.1038 11.359 21.0749 11.093L23.2829 9.36703C23.6929 9.04303 23.8049 8.46802 23.5439 7.98905L21.2499 4.02C21.0048 3.57202 20.4678 3.342 19.9229 3.543L17.3199 4.58798C16.8209 4.22798 16.2978 3.924 15.7569 3.681L15.3609 0.920016C15.2958 0.396 14.8398 0 14.3009 0H9.70089C9.16188 0 8.70691 0.396 8.64288 0.912L8.24589 3.68302C7.72188 3.91903 7.20691 4.21903 6.68589 4.59L4.07589 3.54202C3.58685 3.35302 3.00185 3.56498 2.75885 4.011L0.461877 7.98502C0.190892 8.44303 0.302877 9.03802 0.721892 9.37003L2.92788 11.095C2.89286 11.432 2.87589 11.725 2.87589 12C2.87589 12.2751 2.89291 12.568 2.92788 12.906L0.719877 14.632C0.309861 14.957 0.198861 15.532 0.459861 16.01L2.75388 19.979C2.99889 20.426 3.53088 20.658 4.08086 20.456L6.68388 19.411C7.18188 19.77 7.70486 20.074 8.24589 20.318L8.64189 23.078C8.70686 23.604 9.16188 24 9.70188 24H14.3019C14.8409 24 15.2969 23.604 15.3609 23.088L15.7578 20.318C16.2819 20.081 16.7958 19.782 17.3178 19.41L19.9278 20.458C20.0528 20.5069 20.1857 20.532 20.3199 20.532C20.7078 20.532 21.0648 20.32 21.2448 19.99L23.5488 16C23.8049 15.532 23.6928 14.957 23.2809 14.63ZM12.0009 16C9.79488 16 8.00088 14.206 8.00088 12C8.00088 9.79402 9.79488 8.00002 12.0009 8.00002C14.2068 8.00002 16.0008 9.79402 16.0008 12C16.0008 14.206 14.2068 16 12.0009 16Z" fill="#A0A0A0"/>
</g>
<defs>
<clipPath id="clip0_6454_130">
<rect width="24" height="24" fill="white"/>
</clipPath>
</defs>
</svg>
