<svg width="24" height="24" viewBox="0 0 24 24" fill="none" xmlns="http://www.w3.org/2000/svg">
<path d="M15 19.7501C15 20.8301 13.726 21.4011 12.92 20.6851L8.427 16.6901C8.28986 16.5679 8.11266 16.5003 7.929 16.5001H4.25C3.65361 16.5001 3.08162 16.2633 2.65972 15.8418C2.23782 15.4203 2.00053 14.8485 2 14.2521V9.75512C2 9.15839 2.23705 8.58609 2.65901 8.16413C3.08097 7.74218 3.65326 7.50512 4.25 7.50512H7.93C8.11366 7.5049 8.29086 7.4373 8.428 7.31512L12.919 3.32212C13.725 2.60512 15 3.17712 15 4.25612V19.7501ZM9.425 15.5701L13.5 19.1941V4.81212L9.425 8.43512C9.01319 8.80151 8.48121 9.00398 7.93 9.00412H4.25C4.05109 9.00412 3.86032 9.08314 3.71967 9.22379C3.57902 9.36444 3.5 9.55521 3.5 9.75412V14.2521C3.5 14.451 3.57902 14.6418 3.71967 14.7825C3.86032 14.9231 4.05109 15.0021 4.25 15.0021H7.93C8.48108 15.002 9.01304 15.2041 9.425 15.5701ZM18.992 18.1031C19.1518 18.2215 19.3521 18.2716 19.5488 18.2423C19.7455 18.2131 19.9226 18.1069 20.041 17.9471C21.3163 16.2269 22.0033 14.1415 22 12.0001C22.003 9.85863 21.3157 7.7732 20.04 6.05312C19.982 5.97232 19.9085 5.90386 19.8238 5.85172C19.7391 5.79958 19.6449 5.76481 19.5467 5.74943C19.4484 5.73405 19.3481 5.73837 19.2515 5.76213C19.1549 5.78589 19.064 5.82862 18.9841 5.88784C18.9042 5.94705 18.8369 6.02157 18.786 6.10706C18.7352 6.19254 18.7019 6.28728 18.688 6.38576C18.6741 6.48424 18.68 6.58451 18.7052 6.68071C18.7305 6.77691 18.7746 6.86713 18.835 6.94612C19.9192 8.40785 20.5031 10.1802 20.5 12.0001C20.5028 13.8197 19.919 15.5917 18.835 17.0531C18.7763 17.1323 18.7337 17.2224 18.7099 17.318C18.686 17.4137 18.6812 17.5132 18.6957 17.6107C18.7103 17.7082 18.744 17.8019 18.7948 17.8864C18.8457 17.9709 18.9127 18.0445 18.992 18.1031ZM17.143 15.6311C17.2296 15.6781 17.3246 15.7075 17.4226 15.7178C17.5206 15.728 17.6196 15.7189 17.7141 15.6908C17.8085 15.6628 17.8965 15.6164 17.973 15.5543C18.0495 15.4923 18.1131 15.4157 18.16 15.3291C18.696 14.3381 19 13.2041 19 12.0001C19.0005 10.8383 18.7118 9.69455 18.16 8.67212C18.1131 8.58545 18.0496 8.50886 17.9731 8.44673C17.8967 8.38459 17.8087 8.33813 17.7143 8.30999C17.6198 8.28186 17.5208 8.2726 17.4227 8.28274C17.3247 8.29289 17.2297 8.32224 17.143 8.36912C17.0563 8.416 16.9797 8.4795 16.9176 8.55598C16.8555 8.63246 16.809 8.72043 16.7809 8.81487C16.7527 8.90931 16.7435 9.00836 16.7536 9.10638C16.7638 9.20439 16.7931 9.29945 16.84 9.38612C17.26 10.1631 17.5 11.0531 17.5 12.0011C17.5003 12.9137 17.2735 13.812 16.84 14.6151C16.7455 14.79 16.7244 14.9953 16.7812 15.1858C16.838 15.3764 16.9682 15.5365 17.143 15.6311Z" fill="#A0A0A0"/>
</svg>
