<svg width="24" height="24" viewBox="0 0 24 24" fill="none" xmlns="http://www.w3.org/2000/svg">
<path d="M20.5391 14.852C19.38 15.0792 18.185 15.047 17.0398 14.7575C15.8946 14.4681 14.8278 13.9287 13.9158 13.178C13.0039 12.4274 12.2695 11.4841 11.7654 10.4159C11.2612 9.34772 10.9999 8.18116 11.0001 7C11.0001 5.543 11.3201 4.177 12.0001 3C10.3436 3.00052 8.71935 3.45821 7.30628 4.32267C5.89321 5.18712 4.74614 6.42479 3.99139 7.89937C3.23664 9.37395 2.9035 11.0282 3.02866 12.68C3.15382 14.3318 3.73242 15.917 4.70075 17.261C5.66907 18.605 6.98955 19.6557 8.51674 20.2974C10.0439 20.939 11.7186 21.1468 13.3563 20.8977C14.9939 20.6486 16.5311 19.9523 17.7985 18.8856C19.0658 17.8189 20.0142 16.4231 20.5391 14.852Z" stroke="#4ECDC4" stroke-width="2"/>
</svg>
