<svg width="16" height="16" viewBox="0 0 16 16" fill="none" xmlns="http://www.w3.org/2000/svg">
<path d="M14.7568 5.14575C14.0121 3.38772 12.6127 1.98832 10.8546 1.24356C9.95101 0.863023 8.98043 0.666992 7.99995 0.666992C7.01947 0.666992 6.04888 0.863023 5.14526 1.24356C3.38723 1.98832 1.98783 3.38772 1.24307 5.14575C0.862535 6.04937 0.666504 7.01995 0.666504 8.00043C0.666504 8.98092 0.862535 9.9515 1.24307 10.8551C1.98783 12.6132 3.38723 14.0125 5.14526 14.7573C6.04888 15.1378 7.01947 15.3339 7.99995 15.3339C8.98043 15.3339 9.95101 15.1378 10.8546 14.7573C12.6127 14.0125 14.0121 12.6132 14.7568 10.8551C15.1374 9.9515 15.3334 8.98092 15.3334 8.00043C15.3334 7.01995 15.1374 6.04937 14.7568 5.14575ZM7.99995 14.0004C4.69151 14.0004 1.99995 11.3089 1.99995 8.00043C1.99995 4.692 4.69151 2.00043 7.99995 2.00043C11.3084 2.00043 13.9999 4.692 13.9999 8.00043C13.9999 11.3089 11.3084 14.0004 7.99995 14.0004Z" fill="#4ECDC4"/>
<path d="M8.6665 7.7243V4.00055C8.6665 3.82376 8.59627 3.65422 8.47127 3.52922C8.34626 3.40421 8.17672 3.33398 7.99994 3.33398C7.82315 3.33398 7.65361 3.40421 7.52861 3.52922C7.4036 3.65422 7.33337 3.82376 7.33337 4.00055V8.00055C7.33331 8.08809 7.35053 8.17478 7.38405 8.25564C7.41756 8.33651 7.46672 8.40997 7.52869 8.4718L9.52869 10.4718C9.59052 10.534 9.66402 10.5834 9.74499 10.6172C9.82596 10.651 9.91279 10.6684 10.0005 10.6686C10.0882 10.6687 10.1751 10.6515 10.2562 10.618C10.3373 10.5845 10.4109 10.5353 10.473 10.4732C10.535 10.4112 10.5841 10.3375 10.6176 10.2565C10.6511 10.1754 10.6683 10.0885 10.6681 10.0008C10.6679 9.91303 10.6505 9.8262 10.6167 9.74524C10.5829 9.66428 10.5334 9.59079 10.4712 9.52899L8.6665 7.7243Z" fill="#4ECDC4"/>
</svg>
